<?xml version="1.0" encoding="utf-8"?>
<!-- Generator: Adobe Illustrator 16.0.0, SVG Export Plug-In . SVG Version: 6.00 Build 0)  -->
<!DOCTYPE svg PUBLIC "-//W3C//DTD SVG 1.1//EN" "http://www.w3.org/Graphics/SVG/1.1/DTD/svg11.dtd">
<svg version="1.1" id="Calque_1" xmlns="http://www.w3.org/2000/svg" xmlns:xlink="http://www.w3.org/1999/xlink" x="0px" y="0px"
	 width="300px" height="100px" viewBox="0 0 300 100" enable-background="new 0 0 300 100" xml:space="preserve">
<g>
	<g>
		<path fill="#414042" d="M145.827,45.478c0,0,0.631,0,0.976,0.692l3.527,8.263l3.492-8.263c0.315-0.694,0.977-0.694,0.977-0.694
			h1.797c0,0,0.944,0,0.944,0.915v20.245c0,0,0,0.913-0.944,0.913h-1.167c0,0-0.941,0-0.941-0.913l0.312-15.578l-2.8,7.065
			c-0.253,0.6-0.535,0.661-0.882,0.661H149.7c-0.379,0-0.692-0.064-0.944-0.661l-2.958-7.223l0.313,15.736c0,0,0,0.913-0.912,0.913
			h-1.228c0,0-0.912,0-0.912-0.913V46.392c0,0,0-0.915,0.912-0.915h1.856V45.478z M174.193,45.478c0.913,0,0.913,0.882,0.913,0.882
			v1.229c0,0,0,0.884-0.883,0.884h-8.089v6.466h5.98c0.915,0,0.915,0.882,0.915,0.882v1.229c0,0,0,0.885-0.883,0.885h-6.013v6.622
			h8.059c0.913,0,0.913,0.883,0.913,0.883v1.229c0,0,0,0.882-0.883,0.882H163.08V45.478H174.193L174.193,45.478z M182.915,64.588
			h3.24c2.143,0,3.435-1.294,3.435-4.162v-7.822c0-2.869-1.292-4.163-3.435-4.163h-3.24V64.588z M186.155,45.477
			c4.692,0,6.487,3.154,6.487,7.127v7.822c0,3.973-1.795,7.124-6.487,7.124h-6.294V45.478h6.294V45.477z M199.885,45.478
			c0,0,0.943,0,0.943,0.914v20.245c0,0.913-0.91,0.913-0.91,0.913h-1.23c0,0-0.912,0-0.912-0.913V46.392
			c0-0.915,0.883-0.915,0.883-0.915h1.227V45.478z M213.075,48.473l-2.487,9.24h5.005l-2.456-9.24H213.075z M214.397,45.477
			c0,0,0.723,0,0.944,0.756l5.666,20.312c0.284,1.006-0.789,1.006-0.789,1.006h-1.444c-0.349,0-0.726-0.251-0.882-0.754
			l-1.481-6.087h-6.609l-1.573,6.087c-0.158,0.503-0.536,0.754-0.852,0.754h-1.479c0,0-1.038,0-0.757-1.006l5.731-20.312
			c0.218-0.756,0.91-0.756,0.91-0.756H214.397z M71.011,45.106c0,0,0.914,0,0.914,0.916v13.34c0,3.879,1.101,5.045,3.493,5.045
			c2.14,0,3.43-1.166,3.43-5.045v-13.34c0-0.916,0.883-0.916,0.883-0.916h1.26c0,0,0.914,0,0.914,0.916v13.185
			c0,4.38-1.796,8.197-6.487,8.197c-4.563,0-6.545-3.721-6.545-8.197V46.021c0-0.914,0.879-0.914,0.879-0.914H71.011L71.011,45.106z
			 M89.837,64.217h2.832c2.143,0,3.589-1.29,3.589-3.657c0-2.9-1.699-3.531-3.839-3.531h-2.582V64.217z M89.837,54.128h2.015
			c2.392,0,3.808-1.072,3.808-2.998c0-1.986-1.038-2.995-3.306-2.995h-2.516v5.993H89.837z M92.357,45.106
			c4.438,0,6.386,2.554,6.386,6.023c0,2.05-0.941,3.47-1.949,4.227c1.856,1.011,2.517,2.901,2.517,5.142
			c0,3.373-1.921,6.685-6.643,6.685h-5.886V45.106h5.571H92.357z M110.709,48.104l-2.487,9.241h5.007l-2.457-9.241H110.709
			L110.709,48.104z M112.032,45.106c0,0,0.723,0,0.945,0.758l5.667,20.308c0.282,1.01-0.788,1.01-0.788,1.01h-1.449
			c-0.346,0-0.723-0.253-0.881-0.757l-1.479-6.084h-6.612l-1.571,6.084c-0.159,0.504-0.537,0.757-0.851,0.757h-1.479
			c0,0-1.039,0-0.758-1.01l5.731-20.308c0.22-0.758,0.911-0.758,0.911-0.758H112.032z M125.444,45.106c0,0,0.945,0,0.945,0.916
			v20.247c0,0.914-0.914,0.914-0.914,0.914h-1.229c0,0-0.911,0-0.911-0.914V46.021c0-0.914,0.879-0.914,0.879-0.914H125.444
			L125.444,45.106z M250.681,50.798c0.063,0.378-0.032,0.882-0.63,1.071l-1.101,0.285c-0.599,0.158-1.198-0.159-1.291-0.695
			c-0.19-1.86-1.292-3.028-3.306-3.028c-2.425,0-3.524,1.263-3.524,4.194v8.172c0,2.931,1.101,4.16,3.524,4.16
			c2.14,0,3.398-1.261,3.398-4.16c0-0.917,0.884-0.917,0.884-0.917h1.259c0,0,0.911,0,0.911,0.917c0,4.003-1.763,7.156-6.452,7.156
			c-4.345,0-6.58-2.996-6.58-7.156v-8.172c0-4.161,2.235-7.188,6.58-7.188C248.446,45.438,250.24,47.864,250.681,50.798
			 M257.773,45.438c0,0,0.946,0,0.946,0.914v20.246c0,0.913-0.913,0.913-0.913,0.913h-1.229c0,0-0.911,0-0.911-0.913V46.351
			c0-0.914,0.88-0.914,0.88-0.914h1.229H257.773z M274.419,45.438c0.912,0,0.912,0.882,0.912,0.882v1.197c0,0,0,0.914-0.912,0.914
			h-4.157v18.166c0,0.913-0.882,0.913-0.882,0.913h-1.258c0,0-0.913,0-0.913-0.913V48.431h-4.124c-0.913,0-0.913-0.883-0.913-0.883
			v-1.197c0,0,0-0.914,0.913-0.914H274.419L274.419,45.438z M280.894,45.438c0.346,0,0.723,0.251,0.882,0.756l4.343,10.909h0.314
			l3.872-10.909c0.159-0.505,0.536-0.756,0.882-0.756h1.512c0.378,0,1.133,0,0.787,1.007l-7.365,20.311
			c-0.284,0.755-0.537,0.755-0.883,0.755h-1.449c-0.375,0-1.133,0-0.784-1.01l2.043-5.61h-0.28c-0.253,0-0.473-0.221-0.567-0.473
			l-5.604-13.973c-0.377-0.851-0.031-1.007,0.567-1.007H280.894L280.894,45.438z M54.482,64.217h3.241
			c2.142,0,3.434-1.29,3.434-4.162v-7.822c0-2.869-1.292-4.163-3.434-4.163h-3.241V64.217L54.482,64.217z M57.723,45.106
			c4.69,0,6.486,3.155,6.486,7.126v7.822c0,3.973-1.796,7.128-6.484,7.128h-6.296V45.106h6.296H57.723z"/>
	</g>
	<g>
		<path fill="#7C3996" d="M26.606,58.713c-1.248-0.033-2.233-1.072-2.199-2.321c0.032-1.2,0.998-2.167,2.199-2.198
			c1.248,0.047,2.222,1.095,2.175,2.342c-0.045,1.184-0.993,2.132-2.175,2.175 M26.606,49.775c-3.687,0.082-6.61,3.137-6.529,6.823
			c0.078,3.575,2.956,6.45,6.529,6.531c3.688-0.081,6.611-3.137,6.53-6.824C33.059,52.73,30.18,49.855,26.606,49.775"/>
		<path fill="#7C3996" d="M37.737,61.787c-0.984-0.714-2.361-0.495-3.075,0.49c-0.002,0-0.002,0.003-0.003,0.003
			c-1.869,2.585-4.861,4.12-8.052,4.132c-3.191-0.009-6.184-1.547-8.053-4.132c-0.711-0.985-2.086-1.207-3.072-0.496
			c-0.002,0-0.004,0.003-0.007,0.003c-0.984,0.718-1.203,2.097-0.49,3.085c2.699,3.729,7.019,5.94,11.622,5.952
			c4.604-0.012,8.923-2.226,11.621-5.952C38.941,63.884,38.722,62.505,37.737,61.787"/>
		<path fill="#7C3996" d="M32.481,73.104c-1.886,0.668-3.874,1.011-5.876,1.008c-9.718,0-17.627-7.922-17.627-17.658
			c0-9.741,7.909-17.662,17.627-17.662c2.01,0,3.987,0.34,5.876,1.008c1.17,0.348,2.4-0.318,2.749-1.487
			c0.324-1.088-0.229-2.244-1.28-2.676c-2.358-0.835-4.843-1.261-7.345-1.261C14.456,34.377,4.572,44.28,4.572,56.454
			c0,12.173,9.884,22.073,22.034,22.073c2.511,0,4.984-0.424,7.345-1.259c1.148-0.409,1.75-1.669,1.344-2.819
			c-0.404-1.148-1.663-1.75-2.811-1.345c-0.001,0-0.001,0-0.002,0"/>
	</g>
</g>
</svg>
