<svg id="Layer_1" data-name="Layer 1" xmlns="http://www.w3.org/2000/svg" xmlns:xlink="http://www.w3.org/1999/xlink" viewBox="0 0 434.23 186.71"><defs><style>.cls-1{fill:url(#linear-gradient);}.cls-2{fill:url(#linear-gradient-2);}.cls-3{fill:url(#linear-gradient-3);}.cls-4{fill:url(#linear-gradient-4);}.cls-5{fill:url(#linear-gradient-5);}.cls-6{fill:url(#linear-gradient-6);}.cls-7{fill:url(#linear-gradient-7);}.cls-8{fill:url(#linear-gradient-8);}.cls-9{fill:url(#linear-gradient-9);}.cls-10{fill:url(#linear-gradient-10);}.cls-11{fill:url(#linear-gradient-11);}.cls-12{fill:url(#linear-gradient-12);}.cls-13{fill:url(#linear-gradient-13);}.cls-14{fill:url(#linear-gradient-14);}.cls-15{fill:url(#linear-gradient-15);}.cls-16{fill:url(#linear-gradient-16);}.cls-17{fill:url(#linear-gradient-17);}.cls-18{fill:url(#linear-gradient-18);}.cls-19{fill:url(#linear-gradient-19);}.cls-20{fill:url(#linear-gradient-20);}.cls-21{fill:url(#linear-gradient-21);}.cls-22{fill:url(#linear-gradient-22);}.cls-23{fill:url(#linear-gradient-23);}.cls-24{fill:url(#linear-gradient-24);}.cls-25{fill:url(#linear-gradient-25);}.cls-26{fill:url(#linear-gradient-26);}.cls-27{fill:url(#linear-gradient-27);}.cls-28{fill:url(#linear-gradient-28);}.cls-29{fill:url(#linear-gradient-29);}.cls-30{fill:url(#linear-gradient-30);}.cls-31{fill:url(#linear-gradient-31);}.cls-32{fill:url(#linear-gradient-32);}.cls-33{fill:url(#linear-gradient-33);}.cls-34{fill:url(#linear-gradient-34);}.cls-35{fill:url(#linear-gradient-35);}.cls-36{fill:url(#linear-gradient-36);}.cls-37{fill:url(#linear-gradient-37);}.cls-38{fill:url(#linear-gradient-38);}.cls-39{fill:url(#linear-gradient-39);}.cls-40{fill:url(#linear-gradient-40);}.cls-41{fill:url(#linear-gradient-41);}.cls-42{fill:url(#linear-gradient-42);}.cls-43{fill:url(#linear-gradient-43);}.cls-44{fill:url(#linear-gradient-44);}.cls-45{fill:url(#linear-gradient-45);}.cls-46{fill:url(#linear-gradient-46);}.cls-47{fill:url(#linear-gradient-47);}.cls-48{fill:url(#linear-gradient-48);}.cls-49{fill:url(#linear-gradient-49);}.cls-50{fill:url(#linear-gradient-50);}.cls-51{fill:url(#linear-gradient-51);}.cls-52{fill:url(#linear-gradient-52);}.cls-53{fill:url(#linear-gradient-53);}.cls-54{fill:url(#linear-gradient-54);}.cls-55{fill:url(#linear-gradient-55);}.cls-56{fill:url(#linear-gradient-56);}.cls-57{fill:url(#linear-gradient-57);}.cls-58{fill:url(#linear-gradient-58);}.cls-59{fill:url(#linear-gradient-59);}.cls-60{fill:url(#linear-gradient-60);}.cls-61{fill:url(#linear-gradient-61);}.cls-62{fill:url(#linear-gradient-62);}.cls-63{fill:url(#linear-gradient-63);}.cls-64{fill:url(#linear-gradient-64);}.cls-65{fill:url(#linear-gradient-65);}.cls-66{fill:url(#linear-gradient-66);}.cls-67{fill:url(#linear-gradient-67);}.cls-68{fill:url(#linear-gradient-68);}.cls-69{fill:url(#linear-gradient-69);}.cls-70{fill:url(#linear-gradient-70);}.cls-71{fill:url(#linear-gradient-71);}.cls-72{fill:url(#linear-gradient-72);}.cls-73{fill:url(#linear-gradient-73);}.cls-74{fill:url(#linear-gradient-74);}.cls-75{fill:url(#linear-gradient-75);}.cls-76{fill:url(#linear-gradient-76);}.cls-77{fill:url(#linear-gradient-77);}.cls-78{fill:#e30613;}</style><linearGradient id="linear-gradient" x1="156.26" y1="19.9" x2="47.13" y2="129.04" gradientUnits="userSpaceOnUse"><stop offset="0" stop-color="#f39200"/><stop offset="1" stop-color="#e30613"/></linearGradient><linearGradient id="linear-gradient-2" x1="186.96" y1="50.6" x2="77.83" y2="159.74" xlink:href="#linear-gradient"/><linearGradient id="linear-gradient-3" x1="179.16" y1="42.8" x2="70.03" y2="151.94" xlink:href="#linear-gradient"/><linearGradient id="linear-gradient-4" x1="163.14" y1="26.78" x2="54.01" y2="135.92" xlink:href="#linear-gradient"/><linearGradient id="linear-gradient-5" x1="171.49" y1="35.13" x2="62.36" y2="144.27" xlink:href="#linear-gradient"/><linearGradient id="linear-gradient-6" x1="155.49" y1="19.13" x2="46.35" y2="128.26" xlink:href="#linear-gradient"/><linearGradient id="linear-gradient-7" x1="164.18" y1="27.82" x2="55.04" y2="136.95" xlink:href="#linear-gradient"/><linearGradient id="linear-gradient-8" x1="167.39" y1="31.03" x2="58.25" y2="140.16" xlink:href="#linear-gradient"/><linearGradient id="linear-gradient-9" x1="164.39" y1="28.03" x2="55.26" y2="137.17" xlink:href="#linear-gradient"/><linearGradient id="linear-gradient-10" x1="191.07" y1="54.71" x2="81.94" y2="163.85" xlink:href="#linear-gradient"/><linearGradient id="linear-gradient-11" x1="133.16" y1="-3.2" x2="24.03" y2="105.94" xlink:href="#linear-gradient"/><linearGradient id="linear-gradient-12" x1="193.31" y1="56.95" x2="84.18" y2="166.09" xlink:href="#linear-gradient"/><linearGradient id="linear-gradient-13" x1="129.86" y1="-6.49" x2="20.73" y2="102.64" xlink:href="#linear-gradient"/><linearGradient id="linear-gradient-14" x1="126.34" y1="-10.02" x2="17.21" y2="99.12" xlink:href="#linear-gradient"/><linearGradient id="linear-gradient-15" x1="195.62" y1="59.26" x2="86.49" y2="168.4" xlink:href="#linear-gradient"/><linearGradient id="linear-gradient-16" x1="122.5" y1="-13.86" x2="13.37" y2="95.28" xlink:href="#linear-gradient"/><linearGradient id="linear-gradient-17" x1="198.04" y1="61.68" x2="88.9" y2="170.82" xlink:href="#linear-gradient"/><linearGradient id="linear-gradient-18" x1="118.2" y1="-18.16" x2="9.07" y2="90.98" xlink:href="#linear-gradient"/><linearGradient id="linear-gradient-19" x1="200.65" y1="64.29" x2="91.51" y2="173.42" xlink:href="#linear-gradient"/><linearGradient id="linear-gradient-20" x1="203.6" y1="67.24" x2="94.47" y2="176.38" xlink:href="#linear-gradient"/><linearGradient id="linear-gradient-21" x1="113.26" y1="-23.09" x2="4.13" y2="86.04" xlink:href="#linear-gradient"/><linearGradient id="linear-gradient-22" x1="207.18" y1="70.83" x2="98.05" y2="179.96" xlink:href="#linear-gradient"/><linearGradient id="linear-gradient-23" x1="107.61" y1="-28.75" x2="-1.53" y2="80.38" xlink:href="#linear-gradient"/><linearGradient id="linear-gradient-24" x1="102.08" y1="-34.28" x2="-7.06" y2="74.85" xlink:href="#linear-gradient"/><linearGradient id="linear-gradient-25" x1="211.91" y1="75.55" x2="102.78" y2="184.69" xlink:href="#linear-gradient"/><linearGradient id="linear-gradient-26" x1="100.48" y1="-35.88" x2="-8.66" y2="73.25" xlink:href="#linear-gradient"/><linearGradient id="linear-gradient-27" x1="217.95" y1="81.59" x2="108.82" y2="190.73" xlink:href="#linear-gradient"/><linearGradient id="linear-gradient-28" x1="220.03" y1="83.67" x2="110.89" y2="192.8" xlink:href="#linear-gradient"/><linearGradient id="linear-gradient-29" x1="106.11" y1="-30.25" x2="-3.03" y2="78.88" xlink:href="#linear-gradient"/><linearGradient id="linear-gradient-30" x1="114" y1="-22.36" x2="4.86" y2="86.77" xlink:href="#linear-gradient"/><linearGradient id="linear-gradient-31" x1="217.24" y1="80.88" x2="108.1" y2="190.01" xlink:href="#linear-gradient"/><linearGradient id="linear-gradient-32" x1="119.1" y1="-17.26" x2="9.96" y2="91.87" xlink:href="#linear-gradient"/><linearGradient id="linear-gradient-33" x1="212.64" y1="76.28" x2="103.5" y2="185.41" xlink:href="#linear-gradient"/><linearGradient id="linear-gradient-34" x1="122.82" y1="-13.54" x2="13.69" y2="95.6" xlink:href="#linear-gradient"/><linearGradient id="linear-gradient-35" x1="208.22" y1="71.86" x2="99.08" y2="180.99" xlink:href="#linear-gradient"/><linearGradient id="linear-gradient-36" x1="125.88" y1="-10.48" x2="16.75" y2="98.66" xlink:href="#linear-gradient"/><linearGradient id="linear-gradient-37" x1="204.28" y1="67.92" x2="95.14" y2="177.05" xlink:href="#linear-gradient"/><linearGradient id="linear-gradient-38" x1="128.6" y1="-7.76" x2="19.46" y2="101.37" xlink:href="#linear-gradient"/><linearGradient id="linear-gradient-39" x1="200.72" y1="64.36" x2="91.58" y2="173.49" xlink:href="#linear-gradient"/><linearGradient id="linear-gradient-40" x1="131.14" y1="-5.22" x2="22" y2="103.91" xlink:href="#linear-gradient"/><linearGradient id="linear-gradient-41" x1="197.41" y1="61.05" x2="88.28" y2="170.18" xlink:href="#linear-gradient"/><linearGradient id="linear-gradient-42" x1="194.26" y1="57.9" x2="85.12" y2="167.03" xlink:href="#linear-gradient"/><linearGradient id="linear-gradient-43" x1="133.59" y1="-2.77" x2="24.46" y2="106.37" xlink:href="#linear-gradient"/><linearGradient id="linear-gradient-44" x1="136.02" y1="-0.34" x2="26.88" y2="108.79" xlink:href="#linear-gradient"/><linearGradient id="linear-gradient-45" x1="191.19" y1="54.83" x2="82.05" y2="163.96" xlink:href="#linear-gradient"/><linearGradient id="linear-gradient-46" x1="138.45" y1="2.09" x2="29.31" y2="111.22" xlink:href="#linear-gradient"/><linearGradient id="linear-gradient-47" x1="188.19" y1="51.83" x2="79.06" y2="160.97" xlink:href="#linear-gradient"/><linearGradient id="linear-gradient-48" x1="140.9" y1="4.55" x2="31.77" y2="113.68" xlink:href="#linear-gradient"/><linearGradient id="linear-gradient-49" x1="185.3" y1="48.94" x2="76.16" y2="158.07" xlink:href="#linear-gradient"/><linearGradient id="linear-gradient-50" x1="143.42" y1="7.06" x2="34.29" y2="116.2" xlink:href="#linear-gradient"/><linearGradient id="linear-gradient-51" x1="182.43" y1="46.07" x2="73.3" y2="155.21" xlink:href="#linear-gradient"/><linearGradient id="linear-gradient-52" x1="146.05" y1="9.69" x2="36.91" y2="118.82" xlink:href="#linear-gradient"/><linearGradient id="linear-gradient-53" x1="179.53" y1="43.17" x2="70.4" y2="152.31" xlink:href="#linear-gradient"/><linearGradient id="linear-gradient-54" x1="176.55" y1="40.19" x2="67.41" y2="149.32" xlink:href="#linear-gradient"/><linearGradient id="linear-gradient-55" x1="148.83" y1="12.47" x2="39.7" y2="121.61" xlink:href="#linear-gradient"/><linearGradient id="linear-gradient-56" x1="173.39" y1="37.03" x2="64.26" y2="146.17" xlink:href="#linear-gradient"/><linearGradient id="linear-gradient-57" x1="151.91" y1="15.55" x2="42.77" y2="124.68" xlink:href="#linear-gradient"/><linearGradient id="linear-gradient-58" x1="155.59" y1="19.23" x2="46.46" y2="128.37" xlink:href="#linear-gradient"/><linearGradient id="linear-gradient-59" x1="169.87" y1="33.51" x2="60.73" y2="142.64" xlink:href="#linear-gradient"/><linearGradient id="linear-gradient-60" x1="160.34" y1="23.98" x2="51.21" y2="133.12" xlink:href="#linear-gradient"/><linearGradient id="linear-gradient-61" x1="165.52" y1="29.16" x2="56.38" y2="138.29" xlink:href="#linear-gradient"/><linearGradient id="linear-gradient-62" x1="160.51" y1="24.15" x2="51.37" y2="133.28" xlink:href="#linear-gradient"/><linearGradient id="linear-gradient-63" x1="165.74" y1="29.38" x2="56.61" y2="138.52" xlink:href="#linear-gradient"/><linearGradient id="linear-gradient-64" x1="155.89" y1="19.53" x2="46.76" y2="128.67" xlink:href="#linear-gradient"/><linearGradient id="linear-gradient-65" x1="170.76" y1="34.4" x2="61.62" y2="143.53" xlink:href="#linear-gradient"/><linearGradient id="linear-gradient-66" x1="152.07" y1="15.71" x2="42.93" y2="124.84" xlink:href="#linear-gradient"/><linearGradient id="linear-gradient-67" x1="174.91" y1="38.55" x2="65.78" y2="147.69" xlink:href="#linear-gradient"/><linearGradient id="linear-gradient-68" x1="178.36" y1="42.01" x2="69.23" y2="151.14" xlink:href="#linear-gradient"/><linearGradient id="linear-gradient-69" x1="148.67" y1="12.31" x2="39.53" y2="121.44" xlink:href="#linear-gradient"/><linearGradient id="linear-gradient-70" x1="145.47" y1="9.11" x2="36.34" y2="118.25" xlink:href="#linear-gradient"/><linearGradient id="linear-gradient-71" x1="181.35" y1="45" x2="72.22" y2="154.13" xlink:href="#linear-gradient"/><linearGradient id="linear-gradient-72" x1="142.39" y1="6.03" x2="33.25" y2="115.16" xlink:href="#linear-gradient"/><linearGradient id="linear-gradient-73" x1="184.04" y1="47.68" x2="74.91" y2="156.82" xlink:href="#linear-gradient"/><linearGradient id="linear-gradient-74" x1="186.52" y1="50.16" x2="77.39" y2="159.3" xlink:href="#linear-gradient"/><linearGradient id="linear-gradient-75" x1="139.34" y1="2.99" x2="30.21" y2="112.12" xlink:href="#linear-gradient"/><linearGradient id="linear-gradient-76" x1="136.29" y1="-0.07" x2="27.16" y2="109.07" xlink:href="#linear-gradient"/><linearGradient id="linear-gradient-77" x1="188.85" y1="52.49" x2="79.71" y2="161.62" xlink:href="#linear-gradient"/></defs><path class="cls-1" d="M68.18,116.56a12.75,12.75,0,0,1-6.79-2l-1-.71,1.42-2,1,.71a10.31,10.31,0,0,0,5.36,1.6c2.2,0,4.58-.73,4.58-2.33,0-1-.57-2.08-4.78-2.83l-.07,0c-3.29-.59-7-1.26-7-4.68,0-2.64,3-4.55,7.06-4.55a14.35,14.35,0,0,1,6,1.4l1.1.56-1.13,2.21-1.1-.57A12.26,12.26,0,0,0,68,102.15c-2.49,0-4.59.94-4.59,2.07s2,1.7,5,2.24h.06c3.18.58,6.83,1.69,6.83,5.28C75.24,114.62,72.4,116.56,68.18,116.56Z" transform="translate(-2.84 -2.36)"/><path class="cls-2" d="M127,116.32a9.15,9.15,0,0,1-4.24-1.28l-1-.66,1.31-2.1,1,.66a6.5,6.5,0,0,0,2.93.9c.87,0,2.24-.27,2.24-1,0-.22,0-.67-2.45-1.1-1.86-.32-4.67-.8-4.67-3.34,0-2,2-3.32,4.73-3.32a10.07,10.07,0,0,1,3.56.73l1.14.49-1,2.28-1.14-.49a7.49,7.49,0,0,0-2.58-.53c-1.33,0-2.25.44-2.25.84s1.62.73,2.59.9c1.58.27,4.53.78,4.53,3.54C131.67,114.93,129.77,116.32,127,116.32Z" transform="translate(-2.84 -2.36)"/><path class="cls-3" d="M102.56,116.32V105.11H105v1.74a4.47,4.47,0,0,1,3.47-1.75,3.83,3.83,0,0,1,3.42,1.86,5.62,5.62,0,0,1,4-1.86,3.84,3.84,0,0,1,4,4.12v7.1h-2.48v-7.1c0-.75-.26-1.64-1.51-1.64-.58,0-3.45.26-3.47,5.53v3.21H110v-7.1c0-.75-.27-1.64-1.52-1.64-.58,0-3.46.27-3.46,5.56v3.18Z" transform="translate(-2.84 -2.36)"/><path class="cls-4" d="M84.61,116.32v-7.1c0-.75-.26-1.64-1.51-1.64-.58,0-3.47.27-3.47,5.56v3.16H77.15v-17h2.48v7.53a4.51,4.51,0,0,1,3.47-1.71,3.84,3.84,0,0,1,4,4.12v7.1Z" transform="translate(-2.84 -2.36)"/><path class="cls-5" d="M97.7,116.32v-1.73a4.46,4.46,0,0,1-3.21,1.73H93.22A4.53,4.53,0,0,1,89,111.76v-2.08a4.59,4.59,0,0,1,4.58-4.58h4a2.53,2.53,0,0,1,2.68,2.6v8.62Zm-4.16-8.74a2.07,2.07,0,0,0-2.1,2.1v2.08a2.1,2.1,0,0,0,2.07,2.07h.73c.58,0,3.46-.26,3.46-5.56v-.58a.28.28,0,0,0,0-.1h0a.59.59,0,0,0-.19,0Z" transform="translate(-2.84 -2.36)"/><path class="cls-6" d="M55.55,102.6a8.35,8.35,0,0,1-6.68-3.43c-2.31-3-2.87-7.49-1.6-12.52l.07-.29h2.57l-.13.48c-1.22,4.47-.84,8.32,1.06,10.84a5.93,5.93,0,0,0,4.71,2.44c2.05,0,3.23-1.23,3.23-3.37V86.36h2.48v3.19c0,4.1,1.87,5.56,3.47,5.56,1.25,0,1.51-.9,1.51-1.65v-7.1h2.48v3.21c0,5.27,2.89,5.54,3.46,5.54,1.26,0,1.52-.9,1.52-1.65v-7.1h2.48V92c0,3.1,3.18,3.14,3.32,3.14h3c1.25,0,1.51-.9,1.51-1.65V89a2.53,2.53,0,0,1,2.68-2.6h4a4.59,4.59,0,0,1,4.58,4.58v1c0,3.1,3.19,3.14,3.32,3.14h2.9c1,0,1.3-1.12,1.3-1.87V86.36h2.48v3.18c0,4.11,1.86,5.57,3.46,5.57,1.25,0,1.52-.9,1.52-1.65v-7.1h2.47v3.21c0,5.27,2.89,5.54,3.47,5.54,1.25,0,1.51-.9,1.51-1.65v-7.1h2.48v7.1a3.84,3.84,0,0,1-4,4.12,4.93,4.93,0,0,1-4-2.18,3.41,3.41,0,0,1-3.42,2.18,4.91,4.91,0,0,1-4.09-2.23,3.21,3.21,0,0,1-3.15,2.23h-2.9a5.3,5.3,0,0,1-4.33-2,3.82,3.82,0,0,1-3.25,2H89.73A4.71,4.71,0,0,1,86,95.44a3.45,3.45,0,0,1-3.42,2.14h-3a5.14,5.14,0,0,1-4.12-1.84,3.2,3.2,0,0,1-3.2,1.84,4.87,4.87,0,0,1-4-2.18,3.41,3.41,0,0,1-3.42,2.18A4.38,4.38,0,0,1,61.26,96v.8C61.26,100.31,59,102.6,55.55,102.6Zm31-13.74a.36.36,0,0,0,0,.1v.58c0,5.3,2.89,5.57,3.47,5.57h.72A2.11,2.11,0,0,0,92.78,93V90.94a2.07,2.07,0,0,0-2.1-2.1h-4a.52.52,0,0,0-.19,0Z" transform="translate(-2.84 -2.36)"/><path class="cls-7" d="M108.26,85.34a1.61,1.61,0,1,1,1.61-1.61A1.61,1.61,0,0,1,108.26,85.34Z" transform="translate(-2.84 -2.36)"/><path class="cls-8" d="M114.69,85.34a1.61,1.61,0,1,1,1.61-1.61A1.61,1.61,0,0,1,114.69,85.34Z" transform="translate(-2.84 -2.36)"/><path class="cls-9" d="M111.47,82.57A1.61,1.61,0,1,1,113.08,81,1.62,1.62,0,0,1,111.47,82.57Z" transform="translate(-2.84 -2.36)"/><path class="cls-10" d="M90.16,163.63V150.41l-1.4,0-1.4,0V164.5l1.4-.45Z" transform="translate(-2.84 -2.36)"/><path class="cls-11" d="M87.36,30.94V51.46l1.4,0,1.4,0V31.58l-1.4-.3Z" transform="translate(-2.84 -2.36)"/><path class="cls-12" d="M94.72,150.07c-.92.11-1.85.2-2.78.26L93.1,162.9c.92-.19,1.84-.36,2.77-.5Z" transform="translate(-2.84 -2.36)"/><path class="cls-13" d="M82.81,51.8c.92-.11,1.85-.2,2.78-.26l-2-21.68c-.94-.29-1.91-.6-2.89-.94Z" transform="translate(-2.84 -2.36)"/><path class="cls-14" d="M78.3,52.55c.9-.19,1.82-.37,2.75-.51L76.44,27.39c-1-.39-2-.78-3.07-1.2Z" transform="translate(-2.84 -2.36)"/><path class="cls-15" d="M99.23,149.32c-.91.19-1.82.37-2.75.51l2.29,12.22c.93-.08,1.87-.14,2.81-.17Z" transform="translate(-2.84 -2.36)"/><path class="cls-16" d="M73.88,53.72c.88-.28,1.78-.54,2.69-.77l-8.2-28.81-3.32-1.43Z" transform="translate(-2.84 -2.36)"/><path class="cls-17" d="M103.65,148.15c-.88.28-1.78.53-2.69.76l3.68,12.94c1,0,2,.06,3,.13Z" transform="translate(-2.84 -2.36)"/><path class="cls-18" d="M69.58,55.29c.86-.36,1.73-.69,2.61-1L58.91,20l-3.64-1.64Z" transform="translate(-2.84 -2.36)"/><path class="cls-19" d="M108,146.58c-.86.36-1.73.69-2.61,1L111,162.3c1.06.12,2.11.27,3.17.44Z" transform="translate(-2.84 -2.36)"/><path class="cls-20" d="M112.07,144.61c-.82.44-1.65.85-2.5,1.25l8.8,17.66q1.77.39,3.54.84Z" transform="translate(-2.84 -2.36)"/><path class="cls-21" d="M65.45,57.26c.83-.44,1.66-.85,2.51-1.25L47.43,14.78,43.4,13Z" transform="translate(-2.84 -2.36)"/><path class="cls-22" d="M116,142.26c-.78.52-1.57,1-2.38,1.48l13.71,22.14c1.39.42,2.76.87,4.12,1.33Z" transform="translate(-2.84 -2.36)"/><path class="cls-23" d="M61.53,59.6c.77-.51,1.57-1,2.38-1.47L33.22,8.57C31.73,8,30.28,7.38,28.85,6.83Z" transform="translate(-2.84 -2.36)"/><path class="cls-24" d="M57.83,62.3c.73-.59,1.47-1.15,2.23-1.69L16.54,3a31.55,31.55,0,0,0-4-.61Z" transform="translate(-2.84 -2.36)"/><path class="cls-25" d="M119.7,139.57c-.73.59-1.47,1.15-2.23,1.69L139.19,170c1.71.66,3.38,1.33,5,2Z" transform="translate(-2.84 -2.36)"/><path class="cls-26" d="M54.4,65.32q1-1,2.07-1.89L3.72,5.57a8.1,8.1,0,0,0-.88,3.18Z" transform="translate(-2.84 -2.36)"/><path class="cls-27" d="M123.13,136.55q-1,1-2.07,1.89l34.81,38.18c1.94.71,3.73,1.3,5.36,1.73Z" transform="translate(-2.84 -2.36)"/><path class="cls-28" d="M126.27,133.23q-.92,1.07-1.89,2.07l46.14,42.06a1.34,1.34,0,0,0,.11-.14,8.55,8.55,0,0,0,1.18-2.47Z" transform="translate(-2.84 -2.36)"/><path class="cls-29" d="M51.26,68.64q.91-1.06,1.89-2.07l-46-41.92c1,2.13,2.18,4.44,3.44,6.92Z" transform="translate(-2.84 -2.36)"/><path class="cls-30" d="M48.44,72.23c.54-.76,1.1-1.5,1.69-2.23L17.35,45.25c.81,1.73,1.62,3.51,2.41,5.33Z" transform="translate(-2.84 -2.36)"/><path class="cls-31" d="M129.09,129.64c-.54.76-1.1,1.5-1.69,2.23L172,165.53c-.2-1.3-.47-2.67-.81-4.12Z" transform="translate(-2.84 -2.36)"/><path class="cls-32" d="M46,76.08c.47-.81,1-1.6,1.47-2.38L23,58.59c.53,1.4,1,2.82,1.54,4.25Z" transform="translate(-2.84 -2.36)"/><path class="cls-33" d="M131.57,125.79c-.47.81-1,1.6-1.48,2.38L168.51,152c-.43-1.34-.88-2.72-1.36-4.14Z" transform="translate(-2.84 -2.36)"/><path class="cls-34" d="M43.84,80.13c.4-.85.81-1.68,1.25-2.5L26.32,68.28c.35,1.2.69,2.41,1,3.63Z" transform="translate(-2.84 -2.36)"/><path class="cls-35" d="M133.68,121.74c-.39.85-.81,1.68-1.24,2.5l32.07,16c-.44-1.25-.89-2.52-1.35-3.8Z" transform="translate(-2.84 -2.36)"/><path class="cls-36" d="M42.11,84.36c.32-.88.65-1.75,1-2.61L28.32,76c.23,1.08.45,2.16.65,3.25Z" transform="translate(-2.84 -2.36)"/><path class="cls-37" d="M135.41,117.51c-.31.88-.64,1.75-1,2.61L161,130.43c-.41-1.14-.82-2.3-1.23-3.47Z" transform="translate(-2.84 -2.36)"/><path class="cls-38" d="M40.78,88.74c.23-.91.49-1.81.77-2.69l-12-3.43c.15,1,.28,2,.39,3Z" transform="translate(-2.84 -2.36)"/><path class="cls-39" d="M136.74,113.13c-.23.91-.48,1.81-.76,2.69l22.16,6.31c-.36-1.06-.72-2.14-1.08-3.22Z" transform="translate(-2.84 -2.36)"/><path class="cls-40" d="M39.87,93.22c.14-.93.32-1.85.51-2.75l-10.2-1.91c.07,1,.12,1.91.16,2.88Z" transform="translate(-2.84 -2.36)"/><path class="cls-41" d="M137.66,108.65c-.14.93-.32,1.84-.51,2.75l18.58,3.48c-.32-1-.65-2-1-3Z" transform="translate(-2.84 -2.36)"/><path class="cls-42" d="M138.16,104.11c-.06.93-.15,1.86-.26,2.78l15.78,1.47c-.29-1-.57-1.93-.86-2.9Z" transform="translate(-2.84 -2.36)"/><path class="cls-43" d="M30.34,96.93l9,.83c.06-.93.15-1.86.26-2.78l-9.24-.86C30.4,95.05,30.37,96,30.34,96.93Z" transform="translate(-2.84 -2.36)"/><path class="cls-44" d="M39.29,102.33c0-.46,0-.93,0-1.4s0-.93,0-1.39H30.2l-.12,1.39-.15,1.4Z" transform="translate(-2.84 -2.36)"/><path class="cls-45" d="M138.26,100.93c0,.47,0,.94,0,1.4h13.68l-.39-1.4c-.13-.46-.25-.93-.36-1.39H138.24C138.25,100,138.26,100.47,138.26,100.93Z" transform="translate(-2.84 -2.36)"/><path class="cls-46" d="M39.63,106.89c-.11-.92-.2-1.85-.26-2.78l-9.83.91c-.16,1-.35,1.91-.55,2.86Z" transform="translate(-2.84 -2.36)"/><path class="cls-47" d="M150.17,93.84,137.9,95c.11.92.2,1.85.26,2.78l12.4-1.15C150.4,95.68,150.27,94.76,150.17,93.84Z" transform="translate(-2.84 -2.36)"/><path class="cls-48" d="M40.38,111.4c-.19-.91-.37-1.82-.51-2.75L28.3,110.81c-.26,1-.54,2-.84,3Z" transform="translate(-2.84 -2.36)"/><path class="cls-49" d="M149.89,88.08l-12.74,2.39c.19.9.37,1.82.51,2.75l12.28-2.3C149.9,90,149.88,89,149.89,88.08Z" transform="translate(-2.84 -2.36)"/><path class="cls-50" d="M41.55,115.82c-.28-.88-.54-1.78-.77-2.69l-14.41,4.1c-.37,1.09-.76,2.17-1.16,3.24Z" transform="translate(-2.84 -2.36)"/><path class="cls-51" d="M136,86.05c.28.88.53,1.78.76,2.69L150,85c.07-1,.17-2,.29-3Z" transform="translate(-2.84 -2.36)"/><path class="cls-52" d="M43.12,120.12c-.36-.86-.69-1.73-1-2.61l-18.59,7.2c-.51,1.21-1,2.41-1.56,3.61Z" transform="translate(-2.84 -2.36)"/><path class="cls-53" d="M134.4,81.75c.37.86.7,1.73,1,2.61l15.47-6c.2-1.1.44-2.19.7-3.27Z" transform="translate(-2.84 -2.36)"/><path class="cls-54" d="M132.44,77.63c.43.82.85,1.65,1.24,2.5l19.1-9.51c.38-1.26.78-2.5,1.21-3.73Z" transform="translate(-2.84 -2.36)"/><path class="cls-55" d="M45.09,124.24c-.44-.82-.85-1.65-1.25-2.5l-24.5,12.2q-1,2.09-2,4.14Z" transform="translate(-2.84 -2.36)"/><path class="cls-56" d="M130.09,73.7c.52.78,1,1.57,1.48,2.38l24.7-15.3q.9-2.25,1.82-4.42Z" transform="translate(-2.84 -2.36)"/><path class="cls-57" d="M47.43,128.17c-.51-.78-1-1.57-1.47-2.38L13.28,146c-.82,1.62-1.63,3.21-2.41,4.78Z" transform="translate(-2.84 -2.36)"/><path class="cls-58" d="M50.13,131.87c-.59-.73-1.15-1.47-1.69-2.23L5.89,161.77c-.65,1.63-1.22,3.23-1.69,4.78Z" transform="translate(-2.84 -2.36)"/><path class="cls-59" d="M127.4,70c.59.73,1.15,1.47,1.69,2.23L161.84,47.5c.7-1.7,1.34-3.35,1.89-4.93Z" transform="translate(-2.84 -2.36)"/><path class="cls-60" d="M53.15,135.3q-1-1-1.89-2.07L2.84,177.37a14.13,14.13,0,0,0,.73,3.13Z" transform="translate(-2.84 -2.36)"/><path class="cls-61" d="M124.38,66.57q1,1,1.89,2.07l39.49-36a12,12,0,0,0-.51-3.33Z" transform="translate(-2.84 -2.36)"/><path class="cls-62" d="M121.06,63.43q1.06.92,2.07,1.89L161.06,23.7a10.49,10.49,0,0,0-2.58-1.32Z" transform="translate(-2.84 -2.36)"/><path class="cls-63" d="M56.47,138.44q-1.06-.91-2.07-1.89L8.53,186.86a12.76,12.76,0,0,0,2.62,1.29Z" transform="translate(-2.84 -2.36)"/><path class="cls-64" d="M117.47,60.61c.76.54,1.5,1.1,2.23,1.69L150.09,22q-2,.34-4.2.93Z" transform="translate(-2.84 -2.36)"/><path class="cls-65" d="M60.06,141.26c-.76-.54-1.5-1.1-2.23-1.69L20.46,189.06c1.26-.11,2.56-.28,3.91-.53Z" transform="translate(-2.84 -2.36)"/><path class="cls-66" d="M113.62,58.13c.81.47,1.6,1,2.38,1.47l21-33.87-4.14,1.38Z" transform="translate(-2.84 -2.36)"/><path class="cls-67" d="M63.91,143.74c-.81-.47-1.61-1-2.38-1.48l-27,43.62c1.38-.45,2.77-.93,4.19-1.45Z" transform="translate(-2.84 -2.36)"/><path class="cls-68" d="M68,145.86c-.85-.4-1.68-.81-2.51-1.25L47.28,181.1l3.95-1.65Z" transform="translate(-2.84 -2.36)"/><path class="cls-69" d="M109.57,56c.85.4,1.68.81,2.5,1.25l14-28c-1.18.34-2.39.67-3.61,1Z" transform="translate(-2.84 -2.36)"/><path class="cls-70" d="M105.34,54.28c.88.32,1.75.65,2.61,1l9.26-23.92c-1.06.21-2.13.4-3.22.58Z" transform="translate(-2.84 -2.36)"/><path class="cls-71" d="M72.19,147.58c-.88-.31-1.75-.64-2.61-1l-11.6,30L61.59,175Z" transform="translate(-2.84 -2.36)"/><path class="cls-72" d="M101,53c.91.23,1.81.49,2.69.77l6-21.21c-1,.1-2,.18-3,.23Z" transform="translate(-2.84 -2.36)"/><path class="cls-73" d="M76.57,148.91c-.91-.23-1.81-.48-2.69-.76l-7,24.48,3.32-1.43Z" transform="translate(-2.84 -2.36)"/><path class="cls-74" d="M81.05,149.83c-.93-.14-1.85-.32-2.75-.51l-3.75,20.06,3.08-1.26Z" transform="translate(-2.84 -2.36)"/><path class="cls-75" d="M96.48,52c.93.14,1.84.32,2.75.51l3.68-19.7c-.93,0-1.88,0-2.83-.05Z" transform="translate(-2.84 -2.36)"/><path class="cls-76" d="M91.94,51.54c.93.06,1.86.15,2.78.26l1.79-19.26c-.92-.09-1.85-.2-2.78-.33Z" transform="translate(-2.84 -2.36)"/><path class="cls-77" d="M85.59,150.33c-.93-.06-1.86-.15-2.78-.26L81.26,166.7c1-.38,1.95-.74,2.92-1.09Z" transform="translate(-2.84 -2.36)"/><path class="cls-78" d="M187.41,89.18a12.4,12.4,0,0,1,.18-2.2,4.38,4.38,0,0,1,.7-1.71,3.41,3.41,0,0,1,1.38-1.12,5.72,5.72,0,0,1,2.29-.39,5.82,5.82,0,0,1,2.31.39,3.37,3.37,0,0,1,1.39,1.12,4.1,4.1,0,0,1,.7,1.71,13.53,13.53,0,0,1,0,4.4,4.1,4.1,0,0,1-.7,1.71,3.28,3.28,0,0,1-1.39,1.11,5.76,5.76,0,0,1-2.28.39h-5.26a1.69,1.69,0,0,0-1.91,1.91v4.77H183V96.5q0-3.77,3.77-3.76h.68Zm1.8,3.56h2.94a3.44,3.44,0,0,0,1.44-.3,1.88,1.88,0,0,0,.77-.76,3.3,3.3,0,0,0,.31-1.14c0-.44.07-.91.07-1.41s0-1-.07-1.44a2.83,2.83,0,0,0-.34-1.14,1.84,1.84,0,0,0-.84-.76,3.54,3.54,0,0,0-1.53-.28,3.44,3.44,0,0,0-1.51.28,1.86,1.86,0,0,0-.83.76,2.83,2.83,0,0,0-.34,1.14c0,.43-.07.91-.07,1.44Z" transform="translate(-2.84 -2.36)"/><path class="cls-78" d="M210.51,94.59a3.92,3.92,0,0,1-2.8-.89,2.54,2.54,0,0,1-2.22.89H198V92.74h3.11V75H203V92.74h2.54a.76.76,0,0,0,.86-.87V75h1.86V90.83a1.69,1.69,0,0,0,1.91,1.91H211v1.85Z" transform="translate(-2.84 -2.36)"/><path class="cls-78" d="M232.68,86.88a20.86,20.86,0,0,0-2-.63,7.47,7.47,0,0,0-2-.26,2.27,2.27,0,0,0-1.1.27,2.79,2.79,0,0,0-.85.72,3.5,3.5,0,0,0-.55,1,3.89,3.89,0,0,0-.19,1.22v.26a6.65,6.65,0,0,0,.14,1.13,12.25,12.25,0,0,0,.69,2.12h6.52v1.85H210.57V92.74h14.29a10.09,10.09,0,0,1-.58-2,9.82,9.82,0,0,1-.13-1.27v-.26a6.74,6.74,0,0,1,.28-1.91,4.63,4.63,0,0,1,.84-1.62,4,4,0,0,1,1.41-1.13,4.47,4.47,0,0,1,2-.42,8.27,8.27,0,0,1,2,.24c.64.16,1.32.35,2,.57Z" transform="translate(-2.84 -2.36)"/><path class="cls-78" d="M247.57,94.59a3.91,3.91,0,0,1-2.8-.89,2.57,2.57,0,0,1-2.22.89H235V92.74h3.11V75H240V92.74h2.54a.77.77,0,0,0,.86-.87V75h1.86V90.83a1.69,1.69,0,0,0,1.91,1.91H248v1.85ZM237.5,98.47a3,3,0,0,1,.55-2,2.29,2.29,0,0,1,1.8-.62,2.35,2.35,0,0,1,.77.17,1.94,1.94,0,0,1,.67.38l-.31.92a2.87,2.87,0,0,0-.66-.28,2.4,2.4,0,0,0-.47-.06,1,1,0,0,0-.95.39,1.84,1.84,0,0,0-.25,1v.39h2.64v1.18h-4.53v-1l.74-.13Z" transform="translate(-2.84 -2.36)"/><path class="cls-78" d="M247.62,94.59V92.74h1.83a1.69,1.69,0,0,0,1.91-1.91V75h1.86V90.83c0,2.51-1.25,3.76-3.77,3.76Z" transform="translate(-2.84 -2.36)"/><path class="cls-78" d="M270.39,94.59a5,5,0,0,1-3.72-1.2,4.38,4.38,0,0,1-1.15-3.17V88.45a4.39,4.39,0,0,1,1.16-3.17,5,5,0,0,1,3.73-1.2,7,7,0,0,1,1.73.19,6.7,6.7,0,0,1,1.28.46l.19-.34h1.33v5.78c0,1.71.93,2.57,2.7,2.57H278v1.85h-.39c-1.66,0-2.76-.55-3.3-1.64A4.58,4.58,0,0,1,270.39,94.59Zm-1.76-13.13a1.44,1.44,0,1,1,0-2.88,1.36,1.36,0,0,1,1,.42,1.45,1.45,0,0,1,0,2A1.36,1.36,0,0,1,268.63,81.46Zm1.7,11.28A2.39,2.39,0,0,0,273,90V86.51l-.46-.21a2.91,2.91,0,0,0-.5-.18,3.43,3.43,0,0,0-.68-.13,6.75,6.75,0,0,0-1-.06,3.33,3.33,0,0,0-2.13.61,2.53,2.53,0,0,0-.85,2v1.67a2.58,2.58,0,0,0,.81,2A3.18,3.18,0,0,0,270.33,92.74ZM274.13,80a1.43,1.43,0,1,1-.42-1A1.39,1.39,0,0,1,274.13,80Z" transform="translate(-2.84 -2.36)"/><path class="cls-78" d="M277.67,92.74h3.17V89.2a13.47,13.47,0,0,1,.18-2.29,4.44,4.44,0,0,1,.69-1.77,3.43,3.43,0,0,1,1.4-1.17,5.45,5.45,0,0,1,2.31-.42,5.35,5.35,0,0,1,2.29.42,3.44,3.44,0,0,1,1.38,1.17,4.6,4.6,0,0,1,.7,1.77A13.47,13.47,0,0,1,290,89.2a12.66,12.66,0,0,1-.18,2.25,4.11,4.11,0,0,1-.7,1.69,3.3,3.3,0,0,1-1.38,1.07,5.73,5.73,0,0,1-2.29.38h-7.75Zm5.71-11.88a1.4,1.4,0,0,1-1-.42,1.47,1.47,0,0,1,0-2,1.46,1.46,0,0,1,2,0,1.47,1.47,0,0,1,0,2A1.39,1.39,0,0,1,283.38,80.86Zm4.78,8.34c0-.55,0-1.07-.06-1.54a3.47,3.47,0,0,0-.34-1.23,2,2,0,0,0-.83-.82,3.16,3.16,0,0,0-1.51-.3,3.28,3.28,0,0,0-1.55.3,2,2,0,0,0-.82.82,3.28,3.28,0,0,0-.34,1.23,14.77,14.77,0,0,0-.07,1.54v3.54h2.78a3.84,3.84,0,0,0,1.51-.24,1.78,1.78,0,0,0,.83-.69,2.84,2.84,0,0,0,.34-1.11Q288.16,90,288.16,89.2Zm.71-9.78a1.43,1.43,0,1,1-.42-1A1.39,1.39,0,0,1,288.87,79.42Z" transform="translate(-2.84 -2.36)"/><path class="cls-78" d="M290.85,99.54a4.55,4.55,0,0,0,1.53-.35,2.31,2.31,0,0,0,.92-.76,3,3,0,0,0,.44-1.17,8.84,8.84,0,0,0,.12-1.54V84.15h1.83V95.72a9.59,9.59,0,0,1-.25,2.32,4.37,4.37,0,0,1-.82,1.72,3.93,3.93,0,0,1-1.51,1.13,6.52,6.52,0,0,1-2.26.48Z" transform="translate(-2.84 -2.36)"/><path class="cls-78" d="M303,94.59q-3.76,0-3.76-3.76V75h1.85V90.83A1.69,1.69,0,0,0,303,92.74h13v1.85Z" transform="translate(-2.84 -2.36)"/><path class="cls-78" d="M323,94.59a3.7,3.7,0,0,1-3.17-1.36,3.67,3.67,0,0,1-3.14,1.36h-1.23V92.74h1.23q2.22,0,2.22-2.7v-6h1.86v6.2c0,1.64.8,2.46,2.23,2.46s2.22-.9,2.22-2.7v-6h1.86v6q0,2.7,2.22,2.7c1.48,0,2.23-.9,2.23-2.7v-6h1.85v6c0,1.8.75,2.7,2.23,2.7h1.23v1.85h-1.23a3.7,3.7,0,0,1-3.17-1.36,4.33,4.33,0,0,1-6.3,0A3.67,3.67,0,0,1,323,94.59Zm1.07-13.11a1.42,1.42,0,0,1-1.44-1.43,1.36,1.36,0,0,1,.42-1,1.45,1.45,0,0,1,2,0,1.36,1.36,0,0,1,.42,1,1.42,1.42,0,0,1-1.44,1.43Zm2-3.5a1.43,1.43,0,1,1,1-.42A1.39,1.39,0,0,1,326.1,78Zm3.46,2.07a1.44,1.44,0,1,1-2.88,0,1.36,1.36,0,0,1,.42-1,1.45,1.45,0,0,1,2,0A1.36,1.36,0,0,1,329.56,80.05Z" transform="translate(-2.84 -2.36)"/><path class="cls-78" d="M336.32,94.59V92.74h1.84a1.69,1.69,0,0,0,1.91-1.91V75h1.85V90.83q0,3.77-3.76,3.76Z" transform="translate(-2.84 -2.36)"/><path class="cls-78" d="M345.23,94.59V75h1.86V94.59Z" transform="translate(-2.84 -2.36)"/><path class="cls-78" d="M364.62,94.59a5,5,0,0,1-3.72-1.2,4.42,4.42,0,0,1-1.15-3.17V88.45a4.35,4.35,0,0,1,1.17-3.17,5,5,0,0,1,3.73-1.2,6.91,6.91,0,0,1,1.72.19,6.46,6.46,0,0,1,1.28.46l.19-.34h1.33v5.78a2.36,2.36,0,0,0,2.7,2.57h.39v1.85h-.39c-1.66,0-2.76-.55-3.3-1.64A4.58,4.58,0,0,1,364.62,94.59Zm-1.75-13.13a1.36,1.36,0,0,1-1-.42,1.45,1.45,0,0,1,0-2,1.36,1.36,0,0,1,1-.42,1.44,1.44,0,1,1,0,2.88Zm1.7,11.28a2.38,2.38,0,0,0,2.69-2.7V86.51l-.46-.21a2.79,2.79,0,0,0-.49-.18,3.58,3.58,0,0,0-.68-.13,6.85,6.85,0,0,0-1-.06,3.36,3.36,0,0,0-2.14.61,2.53,2.53,0,0,0-.85,2v1.67a2.62,2.62,0,0,0,.81,2A3.19,3.19,0,0,0,364.57,92.74ZM368.36,80a1.43,1.43,0,1,1-.42-1A1.39,1.39,0,0,1,368.36,80Z" transform="translate(-2.84 -2.36)"/><path class="cls-78" d="M371.9,94.59V92.74h12.73a2.38,2.38,0,0,0,2.69-2.7v-6h1.86v6.09c0,1.71.93,2.57,2.7,2.57h1.75v1.85h-1.75a4.5,4.5,0,0,1-3.64-1.36,4.42,4.42,0,0,1-3.61,1.36ZM386.8,80a1.43,1.43,0,1,1,.42,1A1.39,1.39,0,0,1,386.8,80Z" transform="translate(-2.84 -2.36)"/><path class="cls-78" d="M393.15,94.59V92.74h3.24a2.39,2.39,0,0,0,2.7-2.7v-6H401v6c0,3-1.52,4.55-4.56,4.55Zm2.35,6.13a1.43,1.43,0,1,1,1-.42A1.39,1.39,0,0,1,395.5,100.72Zm5.5-1.44a1.43,1.43,0,1,1-.42-1A1.39,1.39,0,0,1,401,99.28Z" transform="translate(-2.84 -2.36)"/><path class="cls-78" d="M413.6,94.59H402.82V92.74h6.93V87.87c0-1.34-.86-2-2.56-2a5.44,5.44,0,0,0-2,.45l-.63-1.54a5.9,5.9,0,0,1,1.27-.49,4.87,4.87,0,0,1,1.25-.19,6.79,6.79,0,0,1,2.4.34,3,3,0,0,1,1.34.89,2.68,2.68,0,0,1,.57,1.23,6.76,6.76,0,0,1,.14,1.33v4.87h2Z" transform="translate(-2.84 -2.36)"/><path class="cls-78" d="M436.42,89.41a13.38,13.38,0,0,1-.18,2.29,4.42,4.42,0,0,1-.69,1.78,3.47,3.47,0,0,1-1.39,1.17,5.35,5.35,0,0,1-2.29.42,5.25,5.25,0,0,1-2.43-.48A3.32,3.32,0,0,1,428,93.26a3.16,3.16,0,0,1-1.37,1,5.73,5.73,0,0,1-2.13.34H413.14V92.74h11.38a3.44,3.44,0,0,0,1.53-.29,1.94,1.94,0,0,0,.84-.81,3.47,3.47,0,0,0,.34-1.23c0-.47.06-1,.06-1.55a9.93,9.93,0,0,1,.25-2.06,4.29,4.29,0,0,1,.75-1.63,3.31,3.31,0,0,1,1.38-1,5.58,5.58,0,0,1,2.2-.37,5.35,5.35,0,0,1,2.29.42,3.53,3.53,0,0,1,1.39,1.16,4.48,4.48,0,0,1,.69,1.78A13.47,13.47,0,0,1,436.42,89.41Zm-1.8,0a14.77,14.77,0,0,0-.07-1.54,3.1,3.1,0,0,0-.34-1.23,2,2,0,0,0-.82-.82,3.19,3.19,0,0,0-1.52-.31,3.26,3.26,0,0,0-1.45.27,2.08,2.08,0,0,0-.84.7,2.57,2.57,0,0,0-.39,1.09,9.85,9.85,0,0,0-.09,1.37v.5c0,.56,0,1.07.06,1.54a3.36,3.36,0,0,0,.34,1.22,2,2,0,0,0,.83.8,3.37,3.37,0,0,0,1.54.29,3.34,3.34,0,0,0,1.52-.29,1.89,1.89,0,0,0,.82-.81,3.1,3.1,0,0,0,.34-1.23A14.84,14.84,0,0,0,434.62,89.41Z" transform="translate(-2.84 -2.36)"/><path class="cls-78" d="M194,109.23v1.9a25.66,25.66,0,0,0-4.76-.5c-3.38,0-4,1-4,3.11,0,1.71.46,2,4,3.29,3.68,1.29,5.51,2,5.51,5.37,0,4-2.54,5.27-6.44,5.27A23.11,23.11,0,0,1,183,127v-1.91a22.22,22.22,0,0,0,5.15.67c3,0,4.31-.81,4.31-3.3,0-1.93-.81-2.42-4-3.55-3.86-1.34-5.43-1.74-5.43-5,0-3.16,1.44-5.14,6.2-5.14A25.11,25.11,0,0,1,194,109.23Z" transform="translate(-2.84 -2.36)"/><path class="cls-78" d="M211.76,117.94v9.41h-1.95V118c0-2.37-.89-3.06-2.48-3.06a13.41,13.41,0,0,0-5.3,1.48v10.94h-1.95V107.73H202v6.89a13.47,13.47,0,0,1,5.41-1.44C210,113.18,211.76,114.54,211.76,117.94Z" transform="translate(-2.84 -2.36)"/><path class="cls-78" d="M228.37,118v9.4h-1.74l-.1-1.19a9.76,9.76,0,0,1-4.91,1.51c-2.35,0-4.41-1-4.41-4.43s2-4.37,5.22-4.37h4V118c0-2.39-1.33-3.12-3.76-3.12a23.92,23.92,0,0,0-4.38.52v-1.7a25.63,25.63,0,0,1,4.41-.49C225.69,113.17,228.37,114.19,228.37,118Zm-6.64,8a9.44,9.44,0,0,0,4.71-1.49v-4h-4c-2.4,0-3.3.41-3.3,2.74C219.16,125.36,220,126,221.73,126Z" transform="translate(-2.84 -2.36)"/><path class="cls-78" d="M241.81,114.84c-1.37,0-2.8.48-5.44,1.88v10.63h-2V113.48h1.74l.13,1.46c2.38-1.24,4-1.77,5.52-1.77Z" transform="translate(-2.84 -2.36)"/><path class="cls-78" d="M249,129c0,2.81-1.77,3.75-4.09,3.75h-.45V131h.39c1.58,0,2.19-.61,2.2-2.07V113.48h2Zm.13-17.77h-2.21V109h2.21Z" transform="translate(-2.84 -2.36)"/><path class="cls-78" d="M265.72,118v9.4H264l-.1-1.19a9.76,9.76,0,0,1-4.91,1.51c-2.35,0-4.41-1-4.41-4.43s2-4.37,5.22-4.37h4V118c0-2.39-1.33-3.12-3.76-3.12a23.92,23.92,0,0,0-4.38.52v-1.7a25.63,25.63,0,0,1,4.41-.49C263,113.17,265.72,114.19,265.72,118Zm-6.64,8a9.44,9.44,0,0,0,4.71-1.49v-4h-4c-2.4,0-3.3.41-3.3,2.74C256.51,125.36,257.34,126,259.08,126Z" transform="translate(-2.84 -2.36)"/><path class="cls-78" d="M283.52,117.94v9.41h-1.94V118c0-2.37-.89-3.06-2.48-3.06a13.45,13.45,0,0,0-5.31,1.48v10.94h-2V107.73h1.94v6.89a13.51,13.51,0,0,1,5.42-1.44C281.74,113.18,283.52,114.54,283.52,117.94Z" transform="translate(-2.84 -2.36)"/><path class="cls-78" d="M312.44,127.35l-.87-14.9-4.29,12.16h-2.12l-4.29-12.16-.87,14.9h-2.17L299,109h2.88l4.36,12.52L310.58,109h2.88l1.16,18.31Z" transform="translate(-2.84 -2.36)"/><path class="cls-78" d="M332,120.19c0,.14,0,.44,0,.84h-9.82c.09,3.62,1.11,4.89,4.37,4.89a11,11,0,0,0,4.94-1.07v1.7a10.88,10.88,0,0,1-5,1.12c-4.81,0-6.29-2.57-6.29-7.2s1.48-7.3,6.08-7.3C331.75,113.17,332.14,117.21,332,120.19Zm-9.85-.72H330c.07-2.18-.12-4.56-3.89-4.56C323.31,114.91,322.28,116.21,322.11,119.47Z" transform="translate(-2.84 -2.36)"/><path class="cls-78" d="M347.42,127.35l-.11-1.2a9,9,0,0,1-4.8,1.52c-4.23,0-5.45-2.77-5.45-7.25s1.22-7.25,5.45-7.25a8.93,8.93,0,0,1,4.7,1.45v-6.9h1.94v19.63Zm-4.72-1.43c1.25,0,2.27-.31,4.51-1.59V116.5c-2.25-1.28-3.26-1.59-4.51-1.59-2.8,0-3.62,1.57-3.62,5.51S339.9,125.92,342.7,125.92Z" transform="translate(-2.84 -2.36)"/><path class="cls-78" d="M357.56,111.19h-2.21V109h2.21Zm-.14,16.16h-1.94V113.48h1.95Z" transform="translate(-2.84 -2.36)"/><path class="cls-78" d="M374.13,118v9.4h-1.75l-.09-1.19a9.83,9.83,0,0,1-4.92,1.51c-2.34,0-4.4-1-4.4-4.43s2-4.37,5.22-4.37h4V118c0-2.39-1.33-3.12-3.76-3.12a23.71,23.71,0,0,0-4.37.52v-1.7a25.51,25.51,0,0,1,4.4-.49C371.44,113.17,374.13,114.19,374.13,118Zm-6.65,8a9.41,9.41,0,0,0,4.71-1.49v-4h-4c-2.4,0-3.29.41-3.29,2.74C364.92,125.36,365.74,126,367.48,126Z" transform="translate(-2.84 -2.36)"/><path class="cls-78" d="M395.44,108.72a18.23,18.23,0,0,1,4.27.54v1.93a17.27,17.27,0,0,0-4.14-.55c-4.23,0-5.19,2.06-5.19,7.55s1,7.56,5.14,7.56a18,18,0,0,0,4.19-.55v1.93a19,19,0,0,1-4.26.54c-5.91,0-7.25-3.48-7.25-9.48s1.39-9.47,7.25-9.47Z" transform="translate(-2.84 -2.36)"/><path class="cls-78" d="M407.43,111.19h-2.21V109h2.2Zm-.13,16.16h-1.94V113.48h1.94Z" transform="translate(-2.84 -2.36)"/><path class="cls-78" d="M419.61,125.89v1.68a10.15,10.15,0,0,1-1.32.1c-2.1,0-3.72-.84-3.72-3.42v-9.19H412.3v-1.57h2.27V110h1.95v3.48h3.09v1.58h-3.09v9.13a1.55,1.55,0,0,0,1.76,1.77C418.72,126,419.15,125.92,419.61,125.89Z" transform="translate(-2.84 -2.36)"/><path class="cls-78" d="M437.06,113.48l-6,16.47a3.8,3.8,0,0,1-3.66,2.56h-1.16v-1.73h1.12a1.88,1.88,0,0,0,1.92-1.41l1-2.84-5.74-13h2.13l4.56,10.39L435,113.48Z" transform="translate(-2.84 -2.36)"/></svg>